<svg xmlns="http://www.w3.org/2000/svg" viewBox="0 0 750 500"><path fill="#ebebeb" d="m716.76 319.14-5.1-9a24 24 0 1 0-5.76 6.41zM191 52.26a9.86 9.86 0 0 0 5.88-9.12c0-5.45-4.11-9.88-9.21-9.91s-9.27 4.38-9.29 9.82a9.84 9.84 0 0 0 5.89 9.21c-14.24 2.15-13.59 17.62-13.59 17.62l33.66.15s.81-15.63-13.34-17.77z"/><path fill="#e0e0e0" d="M85.54 378.44a35 35 0 0 0-15-5.15c-2.44-.25-5.12-.18-7.08 1.3a1.47 1.47 0 0 0-.73 1.29 1.6 1.6 0 0 0 .7.89c6.09 4.64 15.3 5.23 22.09 1.67m-.37-.44a73.26 73.26 0 0 1-9.67-8.51 24.49 24.49 0 0 1-6.06-11.21 4.54 4.54 0 0 1 .48-3.76c7.71 6 13.76 13.81 15.25 23.48"/><path fill="#e0e0e0" d="M85.46 378.38a34.91 34.91 0 0 1 .18-12.69 17.15 17.15 0 0 1 6.76-10.48c1.33 3.11.76 6.7-.18 10a48.35 48.35 0 0 1-6.7 14.12M93 391.92c-4.58.56-8.58 3-12 6.08a22.69 22.69 0 0 0-6.87 11.79c4.5-.28 8.32-3.45 11.08-7s4.7-7.47 7.79-10.79m1.66 2.09a29.58 29.58 0 0 1 3.42-28c2.61 9.29 1.65 19.79-3.42 28m9.98 11.91a21.42 21.42 0 0 0-20.48 11.78c-.25.51-.47 1.16-.13 1.61a1.52 1.52 0 0 0 1.35.4c4-.26 7.62-2.69 10.57-5.45s5.52-6 8.78-8.35m-.41-.66a38.11 38.11 0 0 1-.38-21.3c.75-2.75 2-5.63 4.55-6.92a.86.86 0 0 1 .69-.12.89.89 0 0 1 .44.51 12.75 12.75 0 0 1 1.07 6.11 38.27 38.27 0 0 1-1 6.19c-.8 3.78-1.23 7.84-3.3 11.1a23 23 0 0 0-1.32 2.44c-.39.83-.39 1.12-.75 1.78m26.43 4.15c-2-7.45.12-16.48 4.82-22.59.34-.45.8-.93 1.36-.88.87.08 1.09 1.24 1 2.1a40.77 40.77 0 0 1-7.23 21.37m2.43 1.63c9.05 2.35 19.44.06 27-5.49a21.85 21.85 0 0 0-14.59-1.79c-4.88 1.12-9.33 3.3-12.37 7.28m1.97-4.96c5.07-8.27 14.79-13.66 24.47-14.15-1.12 3.94-4.35 7-8 8.85s-7.73 2.65-11.75 3.43c-1.56.31-3.7.64-4.72 1.87m-3.88-24.07a70.65 70.65 0 0 0 3.12-14.33c.38-4.88-.31-10-2.85-14.17-4.73 9.16-5.21 19.87-.42 29m16.08-8.55c5.54-10.07 16.84-18.1 28.26-19.23-4.4 11-16.43 19.46-28.26 19.23m-3.48 1.97c8.26 1.26 15.29 6.53 23 9.73a10.36 10.36 0 0 0 5.2 1 4.07 4.07 0 0 0 2.55-7.2 11.14 11.14 0 0 0-3.78-2.29c-8.4-3.5-17.42-3.59-26.27-1.47"/><path fill="#e0e0e0" d="M138.93 381.58c1.87.53 2.51 1.5 4 2.76a43.13 43.13 0 0 0 17.45 9c.66.16 1.54.23 1.87-.38s-.08-1.16-.45-1.63a24.05 24.05 0 0 0-10.54-7.15c-4-1.5-7.51-3.3-12.32-2.92m-5.4-34.66a33 33 0 0 0 25.31 8.62 1.76 1.76 0 0 0 1.16-.42c.63-.69-.13-1.76-.87-2.34-7.44-5.8-16.46-8.21-25.6-5.86"/><path fill="#e0e0e0" d="M139.93 344.26a35.3 35.3 0 0 1 31.59-5.21 25.1 25.1 0 0 1-15.05 6.61 47.59 47.59 0 0 1-16.54-1.4m-2.54-16.07c-.73-7.43-.25-13.29-.77-20.75 0-.6-.17-1.32-.73-1.53-.77-.3-1.42.65-1.67 1.45a23.76 23.76 0 0 0 3.16 20.64"/><path fill="#e0e0e0" d="M136.86 329a43.63 43.63 0 0 0 12.3-12c2.43-3.32 4.48-7.31 3.93-11.39a11.8 11.8 0 0 0-8.88 4.41 25 25 0 0 0-4.52 9.1c-1 3.27-1.67 6.63-2.83 9.84m12.14-3.31a99 99 0 0 0 30.28-17.85c-3.62-1.46-7.76-.59-11.37.87-8.27 3.34-15 9-19.07 16.9m-8.58 7.51c5.59.61 11.27 1 16.81.08s10.61-3.07 15.7-5.22a1.84 1.84 0 0 0 1.07-.81 1.24 1.24 0 0 0-.38-1.34 3.38 3.38 0 0 0-1.34-.63c-5.54-1.55-11.52-.82-17 1a78.26 78.26 0 0 0-14.89 6.9m-31.89 13.8c-3.82-7.7-3.57-16.68-.27-24.62 2.32 3.53 2.6 8 2.17 12.24s-1.7 8.53-1.78 12.76m-15.36-8.07A34.34 34.34 0 0 0 67.59 350c4.75.75 9.65-.48 14-2.59a71.22 71.22 0 0 0 12-8m-10.73-3.66c-4.66-.38-9.14-1-13.62.42s-8.56 4.48-10.38 8.8a24.65 24.65 0 0 0 12.77-2.41 74 74 0 0 0 11.23-6.81m15.14.15c-4.2-2.74-8.5-5.54-13.38-6.68s-10.53-.29-13.93 3.39c3.94 2.31 8.74 2.59 13.32 2.58s10.19-.05 14.51 1.48"/><path fill="#e0e0e0" d="M98.05 336.13c-7.16-7-9.88-19.68-7-29.3a44.64 44.64 0 0 1 7 29.3m19.7-19.94c1.35-3.14 2.3-6.44 3.51-9.63a27.87 27.87 0 0 1 5-8.89 13.23 13.23 0 0 1 8.88-4.59 35.72 35.72 0 0 1-17.22 23.16m-3.73 4.11c-2.24-3.08-4.82-7.26-7.86-9.56s-7-3.68-10.68-2.8a24.9 24.9 0 0 0 18.54 12.36m.71-3.9a53.42 53.42 0 0 1-3.54-11.45 17.85 17.85 0 0 1 1.8-11.64c3.93 7.44 5.2 15.42 1.94 23.17m2.69-23.17c2.22-7.37 9-12.79 16.26-15.28a6 6 0 0 1 2.85-.43 2.48 2.48 0 0 1 2.1 1.76c.27 1.25-.77 2.37-1.74 3.21a55.37 55.37 0 0 1-19.47 10.74m.08-6.02c.28-4.75.58-9.57 2.12-14.08s4.53-8.72 8.86-10.69c.74 4.8-1.38 9.57-3.93 13.7s-5.64 8-7.17 12.63m0 1.71c-1.84-5.37-2-12.19-5.25-16.87-2.25-3.27-5.85-5.5-7.78-9a13.61 13.61 0 0 0 .45 10.18 29.68 29.68 0 0 0 6 8.52c2.38 2.54 4.42 4.45 6.63 7.14"/><path fill="#e0e0e0" d="M117.79 448.78c-.15 0-.27-35.83-.28-80s.1-80 .24-80 .27 35.82.28 80-.1 80-.24 80z"/><path fill="#e0e0e0" d="M149.1 341.45a7.51 7.51 0 0 1-1.35.51l-3.75 1.25c-3.12 1.06-7.42 2.6-12.08 4.51s-9 3.59-11.44 5.74a8.42 8.42 0 0 0-2.3 3c-.36.84-.42 1.36-.47 1.35s0-.13 0-.38a5.52 5.52 0 0 1 .26-1 8 8 0 0 1 2.24-3.24 20.08 20.08 0 0 1 5-3.09c2-.93 4.19-1.89 6.53-2.85 4.67-1.92 9-3.41 12.16-4.39 1.58-.49 2.87-.86 3.76-1.1a8.52 8.52 0 0 1 1.44-.31z"/><path fill="#e0e0e0" d="M159.36 316.24s-.12.15-.38.41l-1.15 1.08-4.29 3.89-14.29 12.72c-5.57 5-10.39 9.71-13.73 13.28-1.67 1.79-3 3.26-3.89 4.29l-1 1.19a2.44 2.44 0 0 1-.38.39 1.93 1.93 0 0 1 .3-.46c.22-.28.54-.71 1-1.25.85-1.07 2.13-2.59 3.77-4.41A180.79 180.79 0 0 1 138.91 334c5.6-4.95 10.69-9.4 14.39-12.61l4.4-3.78 1.21-1a2.36 2.36 0 0 1 .45-.37z"/><path fill="#e0e0e0" d="M133.23 339.39c-.14-.06 1-2.75 2.18-6.15s1.73-6.28 1.88-6.25a21.22 21.22 0 0 1-1.39 6.41 41.07 41.07 0 0 1-1.73 4.31 6.42 6.42 0 0 1-.94 1.68zm-15.41 21.69a7 7 0 0 1-.86-1l-2.2-2.82c-1.85-2.39-4.41-5.69-7.27-9.3s-5.5-6.85-7.41-9.2L97.83 336a7 7 0 0 1-.78-1.06 5.73 5.73 0 0 1 .93.93c.58.62 1.39 1.54 2.38 2.68 2 2.28 4.66 5.49 7.53 9.11s5.39 6.95 7.16 9.4c.89 1.22 1.6 2.22 2.07 2.92a6.22 6.22 0 0 1 .7 1.1z"/><path fill="#e0e0e0" d="M111 352.26a12.69 12.69 0 0 1-2.87-5.38 15.27 15.27 0 0 1-.65-5.43h.22q-.15.63-.21.63v-.67h.23a24.84 24.84 0 0 0 .91 5.28 40.19 40.19 0 0 0 2.37 5.57zm-8.91-11.14a8.76 8.76 0 0 0-2-1.17 13.39 13.39 0 0 0-5.57-.44 34.09 34.09 0 0 0-5.62.9 18 18 0 0 1-2.31.56 7.82 7.82 0 0 1 2.22-.91 25.35 25.35 0 0 1 5.66-1.06 12.22 12.22 0 0 1 5.75.62 3.45 3.45 0 0 1 1.87 1.5zm-2.09-2.71c0 .08-1.17-.47-3.08-1.12a32 32 0 0 0-7.67-1.58 31.6 31.6 0 0 0-7.83.4c-2 .36-3.18.73-3.21.64a3.43 3.43 0 0 1 .82-.35 21.48 21.48 0 0 1 2.32-.65A27.44 27.44 0 0 1 97 337a18.33 18.33 0 0 1 2.2 1 3 3 0 0 1 .8.41zM117.75 327a64.32 64.32 0 0 1-2.24-7.8 63.1 63.1 0 0 1-1.74-7.92 66.55 66.55 0 0 1 2.24 7.8 63.1 63.1 0 0 1 1.74 7.92z"/><path fill="#e0e0e0" d="M117.89 327a37.63 37.63 0 0 0-2.48-4.67 21.25 21.25 0 0 0-3.66-3.78 3.57 3.57 0 0 1 1.41.73 11.52 11.52 0 0 1 2.67 2.75 10.31 10.31 0 0 1 2.06 4.97zm-.1 102.68c-.06 0-.16-.87-.57-2.39a34.11 34.11 0 0 0-2.39-6.2c-2.48-5.06-7-11.47-12.71-17.9-2.83-3.19-5.58-6.29-7.92-9.19a64.26 64.26 0 0 1-5.66-8.17 38.53 38.53 0 0 1-2.86-6.07c-.27-.74-.46-1.33-.57-1.73a2.54 2.54 0 0 1-.14-.62s.3.82.89 2.28a44.19 44.19 0 0 0 3 5.95 69 69 0 0 0 5.72 8.06c2.35 2.9 5.1 5.94 7.94 9.18 5.74 6.44 10.24 12.94 12.65 18.08a31.2 31.2 0 0 1 2.26 6.31c.16.78.27 1.39.31 1.8a3.37 3.37 0 0 1 .05.61zm28.29-31.96a13.29 13.29 0 0 1-1.48.83 34.17 34.17 0 0 0-3.85 2.54 43.9 43.9 0 0 0-5.05 4.61c-1.77 1.87-3.6 4.05-5.46 6.38-3.73 4.67-7.22 8.81-9.3 12.11-1.06 1.64-1.83 3-2.34 4s-.78 1.51-.81 1.5a1.25 1.25 0 0 1 .13-.42c.11-.27.26-.67.5-1.17a36.87 36.87 0 0 1 2.21-4.09c2-3.38 5.48-7.58 9.2-12.25 1.87-2.33 3.72-4.51 5.52-6.38a41 41 0 0 1 5.18-4.57 28 28 0 0 1 4-2.43c.49-.24.9-.4 1.16-.51s.38-.17.39-.15zm.55 10.37a22 22 0 0 1-3.13.45 40.66 40.66 0 0 0-7.43 1.47 22.19 22.19 0 0 0-6.66 3.49c-1.53 1.18-2.26 2.16-2.33 2.11a2.5 2.5 0 0 1 .47-.72 11.56 11.56 0 0 1 1.63-1.68 20.29 20.29 0 0 1 6.73-3.7 33.69 33.69 0 0 1 7.55-1.33 17.08 17.08 0 0 1 3.17-.09z"/><path fill="#e0e0e0" d="M128 414.47c-.17-.09 1.25-2.25 2.34-5.15s1.27-5.5 1.45-5.47a4.71 4.71 0 0 1 0 1.68 18 18 0 0 1-.91 4 19.44 19.44 0 0 1-1.82 3.64 5.55 5.55 0 0 1-1.06 1.3zm27.24-44.58a2.79 2.79 0 0 1-.5.26l-1.47.67c-.65.28-1.43.63-2.31 1.1s-1.92.92-3 1.57l-1.71 1c-.59.34-1.18.75-1.8 1.14-1.26.76-2.52 1.7-3.87 2.66a74.16 74.16 0 0 0-8.08 7.11 72.35 72.35 0 0 0-6.83 8.32c-.91 1.38-1.81 2.68-2.53 4-.37.64-.76 1.24-1.08 1.84s-.62 1.19-.91 1.75c-.61 1.09-1 2.14-1.47 3s-.76 1.69-1 2.35l-.62 1.49a2.2 2.2 0 0 1-.25.51 1.91 1.91 0 0 1 .15-.54c.14-.41.31-.91.53-1.53a24.19 24.19 0 0 1 .93-2.39c.41-.92.82-2 1.41-3.1.29-.56.58-1.15.89-1.77s.69-1.22 1.06-1.87c.71-1.3 1.6-2.61 2.51-4a64.18 64.18 0 0 1 15-15.54c1.37-1 2.65-1.89 3.93-2.65.63-.38 1.23-.78 1.83-1.11l1.74-.95c1.09-.63 2.14-1.08 3-1.52s1.7-.76 2.36-1l1.51-.58a2.12 2.12 0 0 1 .58-.22z"/><path fill="#e0e0e0" d="M132.85 384.89a3.5 3.5 0 0 1 1.23-1.83 7.77 7.77 0 0 1 5-1.91 13.66 13.66 0 0 1 5.22 1 7.66 7.66 0 0 1 2 1 12.32 12.32 0 0 1-2.1-.61 15.59 15.59 0 0 0-5.08-.85 8 8 0 0 0-4.74 1.66 13.89 13.89 0 0 0-1.53 1.54zm-3.35 3.45a18.64 18.64 0 0 0 1.41-4.58 19.13 19.13 0 0 0-.31-4.79 3.34 3.34 0 0 1 .58 1.34 9.47 9.47 0 0 1-.8 6.87c-.44.82-.83 1.2-.88 1.16zM93 434.81c.77 13.69 4.9 27.62 11.25 41.7h27.59c6.06-13.94 9.9-27.85 10.58-41.7z"/><path fill="#fafafa" d="M138 457c0 .14-9.09.25-20.3.25s-20.3-.14-20.3-.25 9.08-.26 20.29-.26 20.31.08 20.31.26zm-.63 4.93c0 .14-8.52.26-19 .26s-19-.12-19-.26 8.52-.26 19-.26 19 .11 19 .26zm-32.64-18.13a77.8 77.8 0 0 1 0 12.71 77.8 77.8 0 0 1 0-12.71z"/><path fill="#fafafa" d="M119.52 443.8a83.52 83.52 0 0 1 0 13.17 83.52 83.52 0 0 1 0-13.17zm13.88-.11a86.84 86.84 0 0 1 0 13.43 86.84 86.84 0 0 1 0-13.43z"/><path fill="#fafafa" d="M141.58 443.8c0 .14-10.65.26-23.8.26S94 443.94 94 443.8s10.65-.26 23.8-.26 23.78.12 23.78.26z"/><path fill="#f5f5f5" d="M676.25 61.32a25.82 25.82 0 1 0-48.08 13.05l.07.09c1 1.67 2.23 2.87 3.49 4.62l15 19.86a4.66 4.66 0 0 0 7.44 0l14.74-19.53a55.18 55.18 0 0 0 3.75-5l.06-.07a25.67 25.67 0 0 0 3.53-13.02zm-25.82 11.24a11.36 11.36 0 1 1 11.36-11.36 11.35 11.35 0 0 1-11.36 11.36zM58.15 160.588l98.475-17.346 16.78 95.264-98.474 17.346z"/><path fill="#e0e0e0" d="m81.11 246.36 18.61-53.82 27.8 27.41 10.6-19.02 26.19 30.78-83.2 14.65zm48.7-68.95a7.19 7.19 0 1 1-8.33-5.84 7.2 7.2 0 0 1 8.33 5.84z"/><path fill="#e0e0e0" d="M164.36 232a2.58 2.58 0 0 1-.1-.38c0-.29-.12-.65-.21-1.11-.19-1-.46-2.44-.8-4.28l-3-16.16c-2.5-13.91-6.06-33.71-10.33-57.49l.47.34-83.14 14.68.38-.54v.32l.06.34.12.68.23 1.36.48 2.7c.32 1.81.63 3.6 1 5.38q.94 5.35 1.86 10.61c1.23 7 2.43 13.86 3.61 20.53 2.33 13.35 4.53 26 6.56 37.57l-.48-.34 60.2-10.38 17-2.88 4.51-.75 1.17-.18.42-.05a1.56 1.56 0 0 1-.36.09l-1.12.22-4.41.83-16.86 3.08L81.23 247l-.41.08-.07-.42c-2.06-11.6-4.3-24.21-6.66-37.55l-3.63-20.53q-.93-5.25-1.87-10.6-.47-2.69-1-5.38l-.47-2.71-.24-1.35-.12-.68-.06-.34v-.32c-.34.48.47-.69.4-.57l83.2-14.58.4-.07.07.4c4.13 23.92 7.56 43.83 10 57.82 1.17 6.9 2.09 12.34 2.73 16.1.3 1.82.53 3.23.69 4.22.07.45.13.8.17 1.07a2.59 2.59 0 0 1 0 .41z" opacity=".3"/><path fill="#f5f5f5" d="m57.804 97.453 7.422-38.216 56.7 11.01-7.42 38.217z"/><path fill="#e0e0e0" d="M122 70.75a3.46 3.46 0 0 1-.63.41l-1.85 1.08-6.84 3.87L90 88.77l-.19.1-.14-.16-.34-.4-17-20.13L67.15 62l-1.37-1.69a5.57 5.57 0 0 1-.46-.61 3.51 3.51 0 0 1 .54.54l1.44 1.66 5.25 6L89.7 88l.34.4-.33-.06 22.82-12.52 6.93-3.73 1.89-1a5.76 5.76 0 0 1 .65-.34z"/><path fill="#e0e0e0" d="M57.9 98c-.09-.11 5.19-4.52 11.8-9.85s12-9.56 12.12-9.45-5.19 4.49-11.82 9.82S58 98.07 57.9 98zm42.86-16.15c.13-.07 3.34 6 7.16 13.44s6.81 13.62 6.68 13.68-3.33-6-7.15-13.44-6.82-13.62-6.69-13.68z"/><path fill="#ebebeb" d="m674 238-55.6-19.46a7.37 7.37 0 0 1-4.53-9.39l26.93-76.94a7.37 7.37 0 0 1 9.39-4.53L685.44 140l17.45 37.68-19.51 55.77A7.37 7.37 0 0 1 674 238z"/><path fill="#f5f5f5" d="m685.44 140-7.57 21.66a6.85 6.85 0 0 0 4.2 8.73l20.82 7.29z"/><path fill="#e0e0e0" d="M677.49 163.68s-2.12 5.15 3.26 9a6.65 6.65 0 0 0 .63.39c2.55 1.44 19.33 10.89 19.48 10.48s2-5.82 2-5.82l-20.82-7.29s-5.11-2.03-4.55-6.76z"/><path fill="#fafafa" d="M673.51 159.16c-.09.28-5.93-1.51-13-4s-12.78-4.72-12.68-5 5.93 1.51 13 4 12.78 4.72 12.68 5zm12.33 18.06c-.1.27-9.65-2.82-21.34-6.9s-21.09-7.64-21-7.91 9.65 2.81 21.34 6.9 21.1 7.63 21 7.91zm.24 11.56c-.1.27-10.51-3.12-23.25-7.57s-23-8.3-22.9-8.58 10.51 3.11 23.25 7.57 22.99 8.3 22.9 8.58zm-3.38 9.64c-.1.28-10.51-3.11-23.25-7.57s-23-8.3-22.89-8.57 10.5 3.11 23.25 7.57 22.99 8.29 22.89 8.57zm-3.38 9.65c-.09.28-10.5-3.11-23.24-7.57s-23-8.3-22.9-8.58 10.51 3.11 23.25 7.57 22.99 8.3 22.89 8.58zm-3.32 9.64c-.1.28-10.51-3.11-23.25-7.56s-23-8.3-22.89-8.58 10.5 3.11 23.25 7.57 22.94 8.3 22.89 8.57z"/><path fill="#f5f5f5" d="M656.49 389a20.87 20.87 0 0 1 5-2.18l1-5 8.39-.15 1.21 4.93a20.49 20.49 0 0 1 5.09 2l4.25-2.78 6 5.83-2.62 4.34a20.87 20.87 0 0 1 2.18 5l5 1 .15 8.39-4.93 1.21a20.49 20.49 0 0 1-2 5.09l2.78 4.24-5.83 6-4.34-2.63a20.51 20.51 0 0 1-5 2.19l-1 5-8.39.15-1.21-4.93a20.49 20.49 0 0 1-5.09-2l-4.25 2.78-6-5.83 2.63-4.34a20.68 20.68 0 0 1-2.19-5l-5-1-.15-8.39 4.93-1.21a20.49 20.49 0 0 1 2-5.09l-2.78-4.25 5.83-6 4.34 2.62zm4.51 11.23a9 9 0 1 0 12.73-.23 9 9 0 0 0-12.73.23z"/><path fill="#e0e0e0" d="M519.75 61a22.82 22.82 0 0 1 5.54-2.41l1.15-5.48 9.27-.17L537 58.4a22.73 22.73 0 0 1 5.63 2.21l4.68-3.07L554 64l-2.9 4.79a22.72 22.72 0 0 1 2.41 5.55l5.49 1.12.16 9.27-5.45 1.33a22.2 22.2 0 0 1-2.21 5.63l3.07 4.68-6.44 6.68-4.79-2.91a22.82 22.82 0 0 1-5.54 2.41l-1.13 5.45-9.27.16-1.33-5.44a22.76 22.76 0 0 1-5.63-2.22l-4.68 3.07-6.67-6.44 2.9-4.79a22.82 22.82 0 0 1-2.41-5.54l-5.48-1.1-.17-9.27 5.45-1.34a22.13 22.13 0 0 1 2.21-5.62l-3.07-4.69 6.48-6.67 4.79 2.9zm4.94 12.35a9.95 9.95 0 1 0 14.07-.24 10 10 0 0 0-14.07.25z"/><path fill="#263238" d="M681.12 475.24c0 .14-137.07.26-306.11.26s-306.13-.12-306.13-.26S205.92 475 375 475s306.12.09 306.12.24z"/><path fill="#455a64" d="M590.87 90.93H155.79a13.58 13.58 0 0 0-13.58 13.58v307.31a13.58 13.58 0 0 0 13.58 13.58h167s10.62 32.84-22.3 49.84H456.6s-37.17-12.75-27.6-49.84h161.87a13.58 13.58 0 0 0 13.58-13.58V104.51a13.58 13.58 0 0 0-13.58-13.58z"/><path fill="#263238" d="M379.14 393.08c5.92 8.46-3.35 17.72-11.81 11.8a2.94 2.94 0 0 1-.72-.73c-5.91-8.45 3.35-17.7 11.8-11.8a3.16 3.16 0 0 1 .73.73z"/><path fill="#fff" d="M159.4 96.56h427.86a9.7 9.7 0 0 1 9.7 9.7v262.92H149.7V106.26a9.7 9.7 0 0 1 9.7-9.7z"/><path fill="#ebebeb" d="M158.86 96.56h430.58a7.52 7.52 0 0 1 7.52 7.52v15.14H149.7v-13.5a9.15 9.15 0 0 1 9.16-9.16z"/><path fill="#263238" d="M513.08 425.44c0 .15-61.91.26-138.26.26s-138.28-.11-138.28-.26 61.9-.26 138.28-.26 138.26.12 138.26.26z"/><path fill="#fff" d="M248.39 49.36h272.73v320.17H248.39z"/><path fill="#f5f5f5" d="M483.91 49.41h37.13v34.94h-37.13z"/><path fill="#fff" d="M497.87 60.8h2.94v2.95h-2.94zm4.09 0h2.94v2.95h-2.94zm4.08 0h2.94v2.95h-2.94zm-8.17 4.4h2.94v2.95h-2.94zm4.09 0h2.94v2.95h-2.94zm4.08 0h2.94v2.95h-2.94zm-8.17 4.39h2.94v2.95h-2.94zm4.09 0h2.94v2.95h-2.94zm4.08 0h2.94v2.95h-2.94z"/><path fill="#e0e0e0" d="M248.31 33.23h272.73v16.18H248.31z"/><path fill="#fff" d="M258.42 41.32a2.67 2.67 0 1 1-2.66-2.67 2.67 2.67 0 0 1 2.66 2.67zm7.58 0a2.67 2.67 0 1 1-2.67-2.67 2.67 2.67 0 0 1 2.67 2.67zm7.64 0a2.67 2.67 0 1 1-2.64-2.67 2.68 2.68 0 0 1 2.64 2.67z"/><path fill="#263238" d="M280.41 79v9.29h-2.14v-3.82h-4.21v3.81h-2.14V79h2.14v3.66h4.21V79zm8.99 6.29H284a1.9 1.9 0 0 0 2 1.44 2.42 2.42 0 0 0 1.78-.69l1.1 1.19a3.7 3.7 0 0 1-2.88 1.16c-2.47 0-4.07-1.56-4.07-3.68a3.63 3.63 0 0 1 3.8-3.68 3.54 3.54 0 0 1 3.71 3.71c0 .15-.03.38-.04.55zm-5.4-1.2h3.51a1.78 1.78 0 0 0-3.51 0zm6.81-5.66h2.07v9.85h-2.07zm3.99 0h2.06v9.85h-2.06zm3.45 6.28a3.92 3.92 0 1 1 3.91 3.68 3.67 3.67 0 0 1-3.91-3.68zm5.73 0a1.83 1.83 0 1 0-1.82 2 1.8 1.8 0 0 0 1.84-2zm3.16 2.47a1.27 1.27 0 0 1 2.54 0 1.27 1.27 0 0 1-2.54 0zm0-8.19h2.46l-.41 6.06h-1.64zm11.07 19.44c0 .15-10.44.26-23.32.26s-23.32-.11-23.32-.26 10.44-.26 23.32-.26 23.32.12 23.32.26zm41.54 7.88c0 .14-19.74.26-44.09.26s-44.09-.12-44.09-.26 19.74-.26 44.09-.26 44.09.12 44.09.26z"/><path fill="#e0e0e0" d="M374.48 115.13c0 .14-22.94.26-51.23.26s-51.23-.12-51.23-.26 22.93-.26 51.23-.26 51.23.13 51.23.26zm0 5.87c0 .14-22.94.26-51.23.26S272 121.17 272 121s22.93-.26 51.23-.26 51.25.15 51.25.26z"/><path fill="#0047ff" d="M328.91 143.93a7.1 7.1 0 0 1-7.09-7.11 7.1 7.1 0 0 1 7.09-7.11 7.1 7.1 0 0 1 7.09 7.11 7.11 7.11 0 0 1-7.09 7.11z"/><path fill="#fff" d="M325.69 135.23h1.47v4.75h-1.47zm.73-.62a.88.88 0 1 0-.87-.87.87.87 0 0 0 .87.87zm3.09 2.88c0-.67.3-1.06.89-1.06s.8.38.8 1.06V140h1.46v-3a1.72 1.72 0 0 0-3.15-1.11v-.64h-1.41V140h1.41z"/><path fill="#0047ff" d="M295.23 144a7.15 7.15 0 0 1-7.15-7.16 7.16 7.16 0 0 1 7.15-7.17 7.15 7.15 0 0 1 7.14 7.17 7.14 7.14 0 0 1-7.14 7.16z"/><path fill="#fff" d="M296.84 136.63H294v.83h1.95a1.91 1.91 0 0 1-1.89 1.63 2.27 2.27 0 1 1 1.54-3.94l.64-.55a3.11 3.11 0 1 0-2.18 5.33 2.82 2.82 0 0 0 2.83-3zm4.15.04h-1.19v-1.2h-.76v1.2h-1.2v.76h1.2v1.19h.76v-1.19h1.19v-.76z"/><path fill="#0047ff" d="M312.31 143.88a7.05 7.05 0 0 1-7-7 7.05 7.05 0 0 1 7-7.06 7 7 0 0 1 7 7.06 7 7 0 0 1-7 7z"/><path fill="#fff" d="M312.31 133.65h1.56a2.07 2.07 0 0 1 .72.13 1.31 1.31 0 0 1 .73.73 2.13 2.13 0 0 1 .13.72v3.13a2.07 2.07 0 0 1-.13.72 1.31 1.31 0 0 1-.73.73 2 2 0 0 1-.72.14h-3.12a1.94 1.94 0 0 1-.71-.14 1.29 1.29 0 0 1-.74-.73 2.35 2.35 0 0 1-.13-.72v-3.13a2.42 2.42 0 0 1 .13-.72 1.29 1.29 0 0 1 .74-.73 2 2 0 0 1 .71-.13h1.56m0-.69h-1.59a2.8 2.8 0 0 0-.94.18 1.92 1.92 0 0 0-.68.45 1.81 1.81 0 0 0-.44.68 2.8 2.8 0 0 0-.18.94v3.19a2.74 2.74 0 0 0 .18.94 1.84 1.84 0 0 0 .44.69 2 2 0 0 0 .68.44 2.8 2.8 0 0 0 .94.18h3.18a2.8 2.8 0 0 0 .94-.18 1.94 1.94 0 0 0 .68-.44 1.87 1.87 0 0 0 .45-.69 3 3 0 0 0 .18-.94v-3.19a3.07 3.07 0 0 0-.18-.94 2 2 0 0 0-1.13-1.13 2.8 2.8 0 0 0-.94-.18h-1.59"/><path fill="#fff" d="M312.31 134.84a2 2 0 1 0 2 2 2 2 0 0 0-2-2m0 3.28a1.29 1.29 0 1 1 1.29-1.29 1.28 1.28 0 0 1-1.29 1.29m2.53-3.36a.47.47 0 1 1-.93 0 .47.47 0 0 1 .93 0"/><path fill="#0047ff" d="M278.38 144a7.09 7.09 0 0 1-7.08-7.11 7.09 7.09 0 0 1 7.08-7.1 7.1 7.1 0 0 1 7.09 7.1 7.1 7.1 0 0 1-7.09 7.11z"/><path fill="#fff" d="M277.3 141.17h1.7v-4.33h1.2l.13-1.45H279v-.83c0-.34.06-.48.39-.48h.94v-1.5h-1.2c-1.28 0-1.86.57-1.86 1.65v1.16h-.9v1.46h.9z"/><path fill="#263238" d="M347 153.59c0 .14-17.92.26-40 .26s-40-.12-40-.26 17.93-.26 40-.26 40 .11 40 .26z"/><path fill="#f5f5f5" d="M264.5 179.78h244.43v189.28H264.5z"/><path fill="#0047ff" d="M341.69 202.28c0 .14-7.44.26-16.61.26s-16.6-.12-16.6-.26 7.43-.26 16.6-.26 16.61.11 16.61.26zm119.06 0c0 .14-7.43.26-16.6.26s-16.6-.12-16.6-.26 7.43-.26 16.6-.26 16.6.11 16.6.26zm0 38.27c0 .15-7.43.26-16.6.26s-16.6-.11-16.6-.26 7.43-.26 16.6-.26 16.6.12 16.6.26z"/><path fill="#455a64" d="M353 214.55c0 .14-9.66.26-21.57.26s-21.56-.12-21.56-.26 9.65-.26 21.56-.26 21.57.12 21.57.26z"/><path fill="#263238" d="M351.67 237.18c0 .15-9.66.26-21.57.26s-21.56-.11-21.56-.26 9.65-.26 21.56-.26 21.57.08 21.57.26zm-45.02-22.63a1 1 0 1 1-1-1 1 1 0 0 1 1 1zm0 22.63a1 1 0 1 1-1-1 1 1 0 0 1 1 1zm-.05 19.14a1 1 0 1 1-1-1 1 1 0 0 1 1 1zm-1-21.86a74.92 74.92 0 0 1-.26-8.76 74.81 74.81 0 0 1 .26-8.75 72.27 72.27 0 0 1 .26 8.75 72.38 72.38 0 0 1-.26 8.76zm0 18.21a36 36 0 0 1-.26-6.06 36.05 36.05 0 0 1 .26-6.06 34.83 34.83 0 0 1 .26 6.06 34.74 34.74 0 0 1-.26 6.06z"/><path fill="#455a64" d="M327.7 218.22a71.54 71.54 0 0 1-8.56.26 71.68 71.68 0 0 1-8.56-.26 69.24 69.24 0 0 1 8.56-.26 69.11 69.11 0 0 1 8.56.26z"/><path fill="#e0e0e0" d="M352.65 225.21c0 .14-9.34.26-20.85.26s-20.85-.12-20.85-.26 9.33-.26 20.85-.26 20.85.11 20.85.26zM341 231c0 .14-6.72.26-15 .26s-15-.12-15-.26 6.72-.26 15-.26 15 .14 15 .26zm11.28-3c0 .14-9.33.26-20.85.26s-20.85-.12-20.85-.26 9.34-.26 20.85-.26 20.85.14 20.85.26zm.37 15.49c0 .14-9.34.26-20.85.26s-20.85-.12-20.85-.26 9.33-.26 20.85-.26 20.85.11 20.85.26zM341 249.31c0 .14-6.72.26-15 .26s-15-.12-15-.26 6.72-.26 15-.26 15 .11 15 .26zm11.28-3c0 .14-9.33.26-20.85.26s-20.85-.12-20.85-.26 9.34-.26 20.85-.26 20.85.11 20.85.26z"/><path fill="#263238" d="M351.67 256.51c0 .15-9.66.26-21.57.26s-21.56-.11-21.56-.26 9.65-.26 21.56-.26 21.57.12 21.57.26z"/><path fill="#e0e0e0" d="M352.65 262.82c0 .14-9.34.26-20.85.26s-20.8-.08-20.8-.26 9.33-.26 20.85-.26 20.8.11 20.8.26zM341 268.64c0 .14-6.72.26-15 .26s-15-.12-15-.26 6.72-.26 15-.26 15 .11 15 .26zm11.28-3c0 .14-9.33.26-20.85.26s-20.85-.12-20.85-.26 9.34-.26 20.85-.26 20.85.11 20.85.26z"/><path fill="#0047ff" d="M341.69 281.64c0 .14-7.44.26-16.61.26s-16.6-.12-16.6-.26 7.43-.26 16.6-.26 16.61.11 16.61.26z"/><path fill="#455a64" d="M353 293.91c0 .14-9.66.26-21.57.26s-21.56-.12-21.56-.26 9.65-.26 21.56-.26 21.57.12 21.57.26z"/><path fill="#263238" d="M351.67 316.54c0 .15-9.66.26-21.57.26s-21.56-.11-21.56-.26 9.65-.26 21.56-.26 21.57.12 21.57.26z"/><circle cx="305.66" cy="293.91" r=".99" fill="#263238"/><path fill="#263238" d="M306.65 316.54a1 1 0 1 1-1-1 1 1 0 0 1 1 1zm-.05 19.14a1 1 0 1 1-2 0 1 1 0 0 1 2 0zm-1-21.86a74.81 74.81 0 0 1-.26-8.75 74.92 74.92 0 0 1 .26-8.76 72.38 72.38 0 0 1 .26 8.76 72.27 72.27 0 0 1-.26 8.75zm0 18.18a70.75 70.75 0 0 1 0-12.12 70.75 70.75 0 0 1 0 12.12z"/><path fill="#455a64" d="M327.7 297.58a71.54 71.54 0 0 1-8.56.26 71.68 71.68 0 0 1-8.56-.26 69.24 69.24 0 0 1 8.56-.26 69.11 69.11 0 0 1 8.56.26z"/><path fill="#e0e0e0" d="M352.65 304.57c0 .14-9.34.26-20.85.26s-20.85-.12-20.85-.26 9.33-.26 20.85-.26 20.85.11 20.85.26zM341 310.39c0 .14-6.72.26-15 .26s-15-.12-15-.26 6.72-.26 15-.26 15 .12 15 .26zm11.28-3c0 .14-9.33.26-20.85.26s-20.85-.12-20.85-.26 9.34-.26 20.85-.26 20.85.11 20.85.26zm.37 15.46c0 .14-9.34.26-20.85.26s-20.8-.11-20.8-.26 9.33-.26 20.85-.26 20.8.11 20.8.26zM341 328.67c0 .14-6.72.26-15 .26s-15-.12-15-.26 6.72-.26 15-.26 15 .12 15 .26zm11.28-3c0 .14-9.33.26-20.85.26s-20.85-.12-20.85-.26 9.34-.26 20.85-.26 20.85.11 20.85.26z"/><path fill="#263238" d="M351.67 335.87c0 .15-9.66.26-21.57.26s-21.56-.11-21.56-.26 9.65-.26 21.56-.26 21.57.12 21.57.26z"/><path fill="#e0e0e0" d="M352.65 342.18c0 .14-9.34.26-20.85.26s-20.85-.12-20.85-.26 9.33-.26 20.85-.26 20.85.08 20.85.26zM341 348c0 .14-6.72.26-15 .26s-15-.12-15-.26 6.72-.26 15-.26 15 .12 15 .26zm11.28-3c0 .14-9.33.26-20.85.26s-20.85-.12-20.85-.26 9.34-.26 20.85-.26 20.85.11 20.85.26z"/><path fill="#455a64" d="M389.47 368.6c-.14 0-.26-42-.26-93.82s.12-93.82.26-93.82.26 42 .26 93.82-.12 93.82-.26 93.82zm94.44-155.14c0 .14-13.14.26-29.34.26s-29.35-.12-29.35-.26 13.13-.26 29.35-.26 29.34.12 29.34.26zm.78 4.76c0 .14-13 .26-29.13.26s-29.13-.12-29.13-.26 13-.26 29.13-.26 29.13.11 29.13.26z"/><path fill="#0047ff" d="M460.75 313.91c0 .14-7.43.26-16.6.26s-16.6-.12-16.6-.26 7.43-.26 16.6-.26 16.6.12 16.6.26z"/><path fill="#455a64" d="M483.91 325.09c0 .15-13.14.26-29.34.26s-29.35-.11-29.35-.26 13.13-.26 29.35-.26 29.34.17 29.34.26zm.78 4.76c0 .14-13.31.26-29.73.26s-29.74-.12-29.74-.26 13.31-.26 29.74-.26 29.73.12 29.73.26z"/><path fill="#e0e0e0" d="M479.16 256.41h-50.48a2.24 2.24 0 0 1-2.25-2.24 2.25 2.25 0 0 1 2.25-2.25h50.48a2.25 2.25 0 0 1 2.25 2.25 2.24 2.24 0 0 1-2.25 2.24z"/><path fill="#0047ff" d="M455.83 256.41h-27.15a2.24 2.24 0 0 1-2.25-2.24 2.25 2.25 0 0 1 2.25-2.25h27.15a2.25 2.25 0 0 1 2.25 2.25 2.24 2.24 0 0 1-2.25 2.24z"/><path fill="#e0e0e0" d="M479.16 266.41h-50.48a2.24 2.24 0 0 1-2.25-2.24 2.25 2.25 0 0 1 2.25-2.25h50.48a2.25 2.25 0 0 1 2.25 2.25 2.24 2.24 0 0 1-2.25 2.24z"/><path fill="#0047ff" d="M447 266.41h-18.32a2.24 2.24 0 0 1-2.25-2.24 2.25 2.25 0 0 1 2.25-2.25H447a2.25 2.25 0 0 1 2.25 2.25 2.24 2.24 0 0 1-2.25 2.24z"/><path fill="#e0e0e0" d="M479.16 276.41h-50.48a2.24 2.24 0 0 1-2.25-2.24 2.25 2.25 0 0 1 2.25-2.25h50.48a2.25 2.25 0 0 1 2.25 2.25 2.24 2.24 0 0 1-2.25 2.24z"/><path fill="#0047ff" d="M471.85 276.41h-43.17a2.24 2.24 0 0 1-2.25-2.24 2.25 2.25 0 0 1 2.25-2.25h43.17a2.24 2.24 0 0 1 2.24 2.25 2.24 2.24 0 0 1-2.24 2.24z"/><path fill="#e0e0e0" d="M479.16 286.42h-50.48a2.25 2.25 0 0 1-2.25-2.25 2.25 2.25 0 0 1 2.25-2.25h50.48a2.25 2.25 0 0 1 2.25 2.25 2.25 2.25 0 0 1-2.25 2.25z"/><path fill="#0047ff" d="M465.72 286.42h-37a2.25 2.25 0 0 1-2.25-2.25 2.25 2.25 0 0 1 2.25-2.25h37a2.25 2.25 0 0 1 2.25 2.25 2.25 2.25 0 0 1-2.25 2.25z"/><path fill="#455a64" d="M421.52 255.12a42 42 0 0 1-9.51 0 43.61 43.61 0 0 1 9.51 0zm0 9.05a43.61 43.61 0 0 1-9.51 0 43.61 43.61 0 0 1 9.51 0zm0 9.04a43.61 43.61 0 0 1-9.51 0 43.61 43.61 0 0 1 9.51 0zm0 9.04a43.61 43.61 0 0 1-9.51 0 43.61 43.61 0 0 1 9.51 0z"/><path fill="#0047ff" d="m284.57 196.94 8.41-3.69 7.64 3.69-7.81 4-8.24-4z"/><path fill="#0047ff" d="m286.33 198.95-.12 5.02h12.46v-4.85l-6.02 2.95-6.32-3.12zm119.86-2.41h12.45v7.91h-12.45zm3.73 7.91h5v2.48h-5z"/><path fill="#0047ff" d="M417.69 206.84a59.58 59.58 0 0 1-11.12 0 59.58 59.58 0 0 1 11.12 0zm-136.08 69.61h12.45v7.91h-12.45zm3.72 7.91h5v2.48h-5z"/><path fill="#0047ff" d="M293.1 286.75a59.58 59.58 0 0 1-11.12 0 59.58 59.58 0 0 1 11.12 0zM418 243l-1.13-2a5.38 5.38 0 1 0-1.29 1.43zm-3.08 68a3.06 3.06 0 0 0 1.83-2.84 2.89 2.89 0 1 0-5.76 0 3.08 3.08 0 0 0 1.84 2.87c-4.44.67-4.23 5.49-4.23 5.49h10.48s.24-4.85-4.16-5.52z"/><path fill="#263238" d="M521 33.23c0 2 .1 136.34.24 336.35v.24H248.01V33h.22l272.77.23-272.73.22.22-.22v336.35l-.26-.26h272.7l-.23.23c.3-199.98.3-334.29.3-336.32z"/><path fill="#455a64" d="M635.81 247.46c-11.87 6.15-21 16.73-27.51 28.39s-10.76 24.44-14.94 37.15l-3.66 65.47c13.81-23.49 24.9-51.11 27.89-78.19l-9.19-.82c6.16-.94 11.33-5.4 14.62-10.7s5-11.4 6.64-17.4L618.45 273a41.54 41.54 0 0 0 17.36-25.54z"/><path fill="#0047ff" d="M635.81 247.46c-11.87 6.15-21 16.73-27.51 28.39s-10.76 24.44-14.94 37.15l-3.66 65.47c13.81-23.49 24.9-51.11 27.89-78.19l-9.19-.82c6.16-.94 11.33-5.4 14.62-10.7s5-11.4 6.64-17.4L618.45 273a41.54 41.54 0 0 0 17.36-25.54z"/><path d="M635.81 247.46c-11.87 6.15-21 16.73-27.51 28.39s-10.76 24.44-14.94 37.15l-3.66 65.47c13.81-23.49 24.9-51.11 27.89-78.19l-9.19-.82c6.16-.94 11.33-5.4 14.62-10.7s5-11.4 6.64-17.4L618.45 273a41.54 41.54 0 0 0 17.36-25.54z" opacity=".3"/><path fill="#0047ff" d="M587.66 393.81s-30-35.88-29.63-70.13h12.11S557 315 558 310.19s1.42-23.19 1.42-23.19l11.07 2.77s-8.31-4.15-9.35-10.72 2.43-37 2.43-37 13.49 14.19 17.64 28.71 15 31.48 11.85 75.76-5.4 47.29-5.4 47.29zm15.19 3.38s32.48-21.63 39.69-49.24l-9.73-2.65s12.46-4.08 12.69-8.2 4-18.93 4-18.93L640 318s7.58-1.52 9.85-6.58S656 281.1 656 281.1s-14 8.45-20.46 19.23-19 22-26.1 58.31-6.59 38.55-6.59 38.55z"/><path fill="#263238" d="M571.75 273.32a1.89 1.89 0 0 1 .11.37c.06.28.15.64.26 1.11.22 1 .54 2.43 1 4.26s.89 4.11 1.42 6.75 1.15 5.64 1.76 9c1.28 6.65 2.63 14.61 4 23.45s2.7 18.61 3.9 28.88 2.09 20.08 2.8 29 1.15 17 1.42 23.75c.17 3.39.25 6.45.34 9.14s.14 5 .16 6.9 0 3.33.05 4.36v1.13a2.87 2.87 0 0 1 0 .39 2.33 2.33 0 0 1 0-.39v-1.13c0-1-.08-2.49-.15-4.36s-.12-4.2-.24-6.89-.22-5.75-.41-9.13c-.32-6.76-.86-14.81-1.54-23.73s-1.66-18.73-2.83-29-2.54-20-3.86-28.86-2.68-16.81-3.92-23.46c-.58-3.34-1.18-6.34-1.68-9s-1-4.92-1.33-6.77-.65-3.27-.85-4.28l-.21-1.12a3.58 3.58 0 0 1-.2-.37z"/><path fill="#0047ff" d="M583.5 415.77s-27.43-31.12-35.94-49.93l6.42-2.75c-4.66.77-9.43-1.23-13-4.27s-6.27-7.05-8.87-11l8.47-1.43A31.5 31.5 0 0 1 522 332.07c10 1.64 19 7.13 26.49 14 6 5.56 11.14 12 16.05 18.6a63 63 0 0 1 6.23 10.25c4.64 9.52 12.75 29.43 12.73 40.85z"/><path fill="#263238" d="M643 299.22a1.17 1.17 0 0 1-.13.31c-.1.23-.24.53-.42.91-.4.81-1 2-1.67 3.45-1.47 3-3.56 7.33-6.08 12.72s-5.44 11.86-8.57 19.08-6.41 15.23-9.69 23.7-6.21 16.62-8.78 24.06-4.74 14.19-6.49 19.88-3.15 10.31-4.07 13.51l-1.1 3.68c-.12.39-.22.71-.29 1a1.72 1.72 0 0 1-.12.32 1.17 1.17 0 0 1 .07-.33l.24-1c.23-.88.57-2.12 1-3.71.86-3.22 2.19-7.85 3.9-13.55s3.87-12.47 6.4-19.93 5.47-15.61 8.74-24.1 6.61-16.47 9.74-23.7 6.1-13.67 8.67-19.05 4.71-9.69 6.24-12.65l1.76-3.41c.19-.37.35-.66.47-.88a1.39 1.39 0 0 1 .18-.31zm-57.17 129.89a2.43 2.43 0 0 1-.13-.57c-.07-.44-.16-1-.26-1.65s-.24-1.6-.43-2.62-.36-2.17-.64-3.44c-.49-2.55-1.19-5.56-2.09-8.87s-2.06-6.89-3.45-10.6-2.93-7.15-4.42-10.24-3-5.8-4.29-8c-.63-1.13-1.26-2.12-1.8-3s-1-1.63-1.4-2.24l-.9-1.42a.29.29 0 1 1 .09-.06l1 1.37c.42.59.93 1.32 1.48 2.19s1.21 1.85 1.87 3c1.36 2.21 2.86 4.93 4.4 8s3.06 6.55 4.48 10.27 2.52 7.34 3.43 10.66 1.54 6.36 2 8.92c.25 1.28.4 2.45.56 3.47s.26 1.9.34 2.63.12 1.23.16 1.67a2.12 2.12 0 0 1 0 .53z"/><path fill="#263238" d="M561.99 421.79h60.03v12.25h-60.03zm5.72 12.25 6.49 41.19h36.28l6.05-41.19h-48.82z"/><path fill="#455a64" d="M618.34 434c0 .14-11.36.26-25.36.26s-25.37-.12-25.37-.26 11.36-.26 25.37-.26 25.36.15 25.36.26z"/><path fill="#0047ff" d="M419.54 108.55s-11.11 3.8-12.49 11.2-2.92 17.55-2.92 17.55l16.8-.94z"/><path fill="#0047ff" d="m428.94 104.95-10.4 4-2.17 53.11-1.39 17.72H467l-6.24-71.23-16.22-3.39-15.6-.21z"/><path fill="#0047ff" d="M474 134.93s-2.61-24.88-13.24-26.38L456.29 125v9.91z"/><path fill="#ffbe9d" d="M420.18 138.47s3.77-1.8 5.54-1.17 9.2 4.12 9.2 4.12l-14 4.63-3.44-3.94z"/><path d="M465.45 158.9a8.54 8.54 0 0 0-5.08-4.51 25.35 25.35 0 0 0-6.88-1.21l-19.62-1.6a18.91 18.91 0 0 0-7.39.38c-4.19 1.37-7.76 5.52-10.07 9.27v.88c2 1.49 4.77 1.47 7.19.86s4.69-1.72 7.13-2.24c4.59-1 9.33.19 13.87 1.36l12.46 3.2c2.24.57 4.78 1.1 6.73-.15a5.22 5.22 0 0 0 1.66-6.24z" opacity=".3"/><path fill="#ffbe9d" d="M405.46 137.3s-.47 18.21 3.45 21.57 6.34 2.81 10.63 2.25 28.91-12.89 28.91-12.89l-2.61-8.81-25.56 4.68-.13-7.74z"/><path fill="#ffbe9d" d="M472 134.93s1.12 20.39 0 23-5.23 5.42-9.7 4.68-28.49-7.3-28.51-7.29 8.36-8.8 8.36-8.8l17.35-.38-1.12-11.22z"/><path fill="#ffbe9d" d="M458.34 137.3c-4.84-3.47-12.5 2.12-12.5 2.12v.93l1.92 6.32 11.7-.52s1.99-6.62-1.12-8.85z"/><path fill="#eb996e" d="M459.08 146.05a18.94 18.94 0 0 1-2.82.24c-1.78.09-4.28.2-7.19.3h.13a107.215 107.215 0 0 1-12.22 7.14c-1.15.57-2.09 1-2.75 1.29a4.65 4.65 0 0 1-1 .4 4.58 4.58 0 0 1 1-.58l2.66-1.44c2.25-1.22 5.33-2.94 8.64-5 1.23-.76 2.4-1.51 3.48-2.22h.13c2.9-.07 5.41-.11 7.19-.12a17.33 17.33 0 0 1 2.75-.01z"/><path fill="#eb996e" d="M458.34 134.93a13.8 13.8 0 0 1 .36 2.6c.15 1.61.33 3.83.49 6.29.05.77.1 1.51.14 2.21l-.1-.18a17.2 17.2 0 0 1 3.4 3.46 5.77 5.77 0 0 1 1 1.66 29.48 29.48 0 0 0-4.67-4.72l-.09-.07v-.12c-.05-.7-.1-1.44-.16-2.2-.16-2.46-.28-4.69-.34-6.31a13.28 13.28 0 0 1-.03-2.62zM437.49 141a24.5 24.5 0 0 1-3.39.81c-2.11.43-5 1-8.24 1.58l-5.53 1 .13-.08c-1.19 1.44-2.21 2.63-2.93 3.46a8.94 8.94 0 0 1-1.19 1.25 7.81 7.81 0 0 1 1-1.42c.66-.88 1.62-2.11 2.79-3.58l.05-.06h.08l5.52-1c3.23-.59 6.15-1.1 8.27-1.44a22.76 22.76 0 0 1 3.44-.52z"/><path fill="#eb996e" d="M420.15 136.36a14.75 14.75 0 0 1 .33 3.86 14.56 14.56 0 0 1-.2 3.88 14.94 14.94 0 0 1-.33-3.87 14.4 14.4 0 0 1 .2-3.87z"/><path fill="#263238" d="M418.54 121.74a68.16 68.16 0 0 1 1.08 8.34 67 67 0 0 1 .56 8.39 70.59 70.59 0 0 1-1.08-8.34 69.32 69.32 0 0 1-.56-8.39zm40.68-1.87a62.08 62.08 0 0 1-.13 8.18 65.11 65.11 0 0 1-.64 8.16 63 63 0 0 1 .12-8.18 66.41 66.41 0 0 1 .65-8.16zm.01-42.27c-1.22-1.31-2.7-2.56-3.13-4.3s.18-3.45-.67-4.87c-1-1.75-3.65-1.9-4.9-3.5-.61-.78-.82-1.81-1.42-2.59-1-1.33-2.92-1.63-4.58-1.4s-3.25.88-4.91 1.05c-2.29.23-4.68-.44-6.86.29-2.41.8-3.82 3-5.34 5.14l-2 2.48a8.21 8.21 0 0 1-1.34 1.16 16.2 16.2 0 0 0-2.55 1.75 4.09 4.09 0 0 0 .45 5.86 4.34 4.34 0 0 0-2.77 4.33 12.2 12.2 0 0 0 .88 2.93 4.39 4.39 0 0 1 .18 3 1.9 1.9 0 0 1-2.46 1.15 4.57 4.57 0 0 0 2.59 3 2.77 2.77 0 0 1-1.81.88c2 4.32 7.13 6.46 11.87 6.33s9.23-2.08 13.58-4l12.66-3.75c1.12-.29 1.54-1.68 1.49-2.83a9 9 0 0 1 0-3.44c.51-1.49 2.2-2.33 2.74-3.82.61-1.7-.47-3.53-1.7-4.85z"/><path fill="#263238" d="M429.39 90.28a53.43 53.43 0 0 1-2.55-8.75 18.45 18.45 0 0 1 .47-9c.15-.44 1.43-3.38 1.89-3.35s-.44 2.75-.27 3a15.69 15.69 0 0 1 2 9.07 41.18 41.18 0 0 1-1.56 9"/><path fill="#ffbe9d" d="M440.63 64.22h-.7c-7.61.26-11.64 6.88-11.17 14.49l.18 26.26a8.91 8.91 0 0 0 8.51 8.85 8.91 8.91 0 0 0 9.3-8.65c0-1.38.07-2.35.08-2.35s7.33-1 7.6-8.27c.13-3.53-.19-10.83-.56-17.44a13.62 13.62 0 0 0-13.24-12.89z"/><path fill="#eb996e" d="M446.83 102.8a17.55 17.55 0 0 1-9.43-3s2.18 5.38 9.48 4.9z"/><path fill="#263238" d="M450.74 83.08a1 1 0 0 1-1 1 1 1 0 0 1-1-1 1 1 0 0 1 1-1 1 1 0 0 1 1 1zm1.5-2.99c-.14.14-.91-.47-2-.49s-2 .51-2.08.37.08-.3.45-.56a2.85 2.85 0 0 1 1.66-.47 2.81 2.81 0 0 1 1.61.57c.31.27.42.49.36.58zm-12.01 2.99a1 1 0 0 1-1 1 1 1 0 0 1-1.05-1 1 1 0 0 1 1-1 1 1 0 0 1 1.05 1zm1.01-2.81c-.13.14-.91-.47-2-.49s-1.95.51-2.07.37.07-.3.44-.56a2.88 2.88 0 0 1 1.67-.47 2.81 2.81 0 0 1 1.61.57c.3.31.42.52.35.58zm3.81 8.73a7.16 7.16 0 0 1 1.83-.29c.29 0 .56-.07.61-.27a1.47 1.47 0 0 0-.17-.85c-.25-.7-.51-1.44-.79-2.21a36.7 36.7 0 0 1-1.76-5.77 37.64 37.64 0 0 1 2.23 5.63q.39 1.17.75 2.22a1.71 1.71 0 0 1 .13 1.13.71.71 0 0 1-.49.41 2.24 2.24 0 0 1-.48.06 7.87 7.87 0 0 1-1.86-.06zm-3.32.71c.18 0 .15 1.22 1.18 2.11s2.31.79 2.32 1-.3.23-.84.23a3.11 3.11 0 0 1-1.95-.73 2.67 2.67 0 0 1-.9-1.77c-.04-.55.11-.85.19-.84zm-.44-14c-.12.3-1.23.13-2.55.26s-2.39.45-2.56.18.12-.42.55-.71a4.34 4.34 0 0 1 1.91-.61 4.22 4.22 0 0 1 2 .28c.47.21.7.46.65.6zm10.58.63c-.21.25-1 0-1.9-.07s-1.72.13-1.9-.14.06-.38.41-.62a2.65 2.65 0 0 1 1.55-.38 2.61 2.61 0 0 1 1.5.55c.33.32.47.54.34.66z"/><path fill="#ffbe9d" d="M429.22 84.12c-.13-.05-5-1.61-4.94 3.4s5 3.94 5 3.79-.06-7.19-.06-7.19z"/><path fill="#eb996e" d="M427.79 89.43s-.09.06-.24.13a.93.93 0 0 1-.65 0 2.16 2.16 0 0 1-1-1.93 2.94 2.94 0 0 1 .24-1.25 1 1 0 0 1 .65-.68.44.44 0 0 1 .51.24c.07.14 0 .24.07.25s.1-.09.06-.3a.58.58 0 0 0-.2-.31.69.69 0 0 0-.48-.12 1.21 1.21 0 0 0-.9.78 3 3 0 0 0-.3 1.4 2.26 2.26 0 0 0 1.29 2.15.92.92 0 0 0 .79-.14c.15-.1.17-.21.16-.22z"/><path fill="#263238" d="M450.51 68.85c.8-.46-1.66-3-3.66-3.91-3-1.32-7.62-2.09-10.38-1.26-3.31 1-6.05 2.71-7.68 5.77a19.71 19.71 0 0 0-2 10.09 5.93 5.93 0 0 0 .75 3c.71 1.1 2.06 1.77 2 3.3a2.05 2.05 0 0 0 .54 1.52c.93 1 2 0 2.53-.9 1.07-2 1.15-4.32 1.21-6.57a14.26 14.26 0 0 0-.39-4.75c-.25-.84-.66-1.62-.87-2.46a3.05 3.05 0 0 1 .31-2.51 4.83 4.83 0 0 1 .4-.41 5.19 5.19 0 0 1 5.15-1.07c2.83 1 7.65 2.36 8.89 1.39a7.83 7.83 0 0 0 2.2-2.31z"/><path fill="#263238" d="M436.72 63a10.88 10.88 0 0 1 8.44.33 5.7 5.7 0 0 1 3.07 3.27 3.3 3.3 0 0 1-1.58 3.92l-.1.06c-2.11.75-3.5.49-5.64-.21-1.8-.6-3.4-1.68-5.2-2.26a10.11 10.11 0 0 0-5.94-.08 16.46 16.46 0 0 1 6.95-5.03z"/><path fill="#455a64" d="m195.79 429.21-12.61 20.3s16.4 19.64 14.43 23.62l-40.24-23 18.36-32.44z"/><path fill="#e0e0e0" d="M171.74 440.64a1.89 1.89 0 0 0-2.21 1.23 1.81 1.81 0 0 0 1.19 2.2 2 2 0 0 0 2.33-1.31 1.89 1.89 0 0 0-1.49-2.15"/><path fill="#fff" d="m157.37 450.09 2-3.2 37.84 23.28s1.35 1.81.42 3z" opacity=".6"/><path fill="#263238" d="M184 449.68c-.12.19-1.15-.28-2.48-.2s-2.32.61-2.45.43.8-1.15 2.41-1.22 2.61.83 2.52.99zm3.17 4.16c-.06.22-1.11.07-2.25.51s-1.84 1.22-2 1.1.32-1.3 1.75-1.83 2.6.03 2.5.22zm-.5 6.43c-.2-.07.09-1.2 1.21-2s2.29-.69 2.28-.48-.91.46-1.82 1.12-1.46 1.45-1.67 1.36zm-.36-15.53c-.19.13-.93-.66-2.09-1.22s-2.22-.71-2.22-.93 1.23-.45 2.58.22 1.91 1.83 1.73 1.93z"/><path fill="#455a64" d="m194 437.55-1.36 23.86s23.8 9.39 24 13.83l-46.35-1 .59-37.26z"/><path fill="#e0e0e0" d="M178.39 459.1a1.91 1.91 0 0 0-1.36 2.13 1.83 1.83 0 0 0 2.11 1.36 2 2 0 0 0 1.42-2.26 1.88 1.88 0 0 0-2.34-1.18"/><path fill="#fff" d="m170.3 474.26.21-3.75 44.36 2.34s2 .94 1.78 2.39z" opacity=".6"/><path fill="#263238" d="M193.44 461.19c0 .23-1.15.31-2.28 1s-1.74 1.64-1.95 1.55.16-1.4 1.54-2.22 2.74-.52 2.69-.33zm4.82 2.11c0 .22-.94.59-1.73 1.53s-1 1.95-1.26 1.93-.34-1.29.66-2.45 2.33-1.22 2.33-1.01zm2.64 5.88c-.21 0-.5-1.09.11-2.32s1.67-1.7 1.76-1.51-.57.84-1.06 1.86-.59 1.95-.81 1.97zm-7.76-13.46c-.1.2-1.13-.13-2.41-.07s-2.29.44-2.4.24.86-1 2.37-1 2.56.65 2.44.83zm40.71-170.46s-3.11 75.59-5 82.62-41.16 78.89-41.16 78.89L164 435.15l31.4-75.89V286z"/><path fill="#263238" d="M173.14 285.26s-2.49 18.39-1.21 20.31 3.52 8 3.52 8l-1.93 59.1-5.74 86.89h27.6l11.85-76.62s4.15-7 5.75-13.1 11-66.45 11-66.45V280.1z"/><path fill="#455a64" d="M227.05 288.49a2.19 2.19 0 0 1 0 .45c0 .32-.11.75-.18 1.3-.18 1.18-.44 2.87-.76 5l-2.9 18.46c-1.24 7.8-2.72 17.08-4.36 27.37-.84 5.15-1.67 10.56-2.63 16.16a98 98 0 0 1-4.3 17.06c-2.08 5.67-5 10.84-6 16.43-1.19 5.53-2 10.95-2.82 16.1-1.56 10.31-2.82 19.62-3.89 27.44s-1.93 14.14-2.59 18.5c-.33 2.19-.59 3.88-.8 5-.1.55-.19 1-.25 1.3a2.06 2.06 0 0 1-.1.44 3.09 3.09 0 0 1 .05-.45c0-.32.11-.75.18-1.31.17-1.18.4-2.87.7-5 .57-4.4 1.39-10.72 2.41-18.53s2.23-17.14 3.76-27.46c.8-5.16 1.62-10.58 2.8-16.14 1-5.68 4-10.9 6.06-16.51a97.85 97.85 0 0 0 4.29-17c1-5.59 1.81-11 2.66-16.14 1.69-10.29 3.21-19.56 4.48-27.35s2.35-14.05 3.08-18.44l.86-5 .24-1.3a2.49 2.49 0 0 1 .01-.38zm-56.19 124.39a10.71 10.71 0 0 1 0 1.83c0 1.18-.12 2.87-.24 5-.23 4.2-.65 10-1.14 16.39s-.9 12.19-1.17 16.38c-.14 2-.25 3.7-.33 5a10.56 10.56 0 0 1-.19 1.82 10.81 10.81 0 0 1 0-1.83c0-1.17.06-2.88.14-5 .17-4.2.53-10 1-16.4s1-12.09 1.31-16.37c.17-2 .31-3.69.42-5a13.83 13.83 0 0 1 .2-1.82z"/><path fill="#263238" d="M233.56 127.6c-1.79-1.93-4-3.75-4.59-6.3-.57-2.36.26-5-1-7.13-1.52-2.56-5.33-2.77-7.16-5.12-.89-1.13-1.2-2.64-2.08-3.78-1.49-2-4.28-2.39-6.71-2s-4.75 1.29-7.18 1.54c-3.35.34-6.85-.65-10 .42-3.52 1.17-5.59 4.39-7.81 7.52l-2.9 3.63a12.58 12.58 0 0 1-2 1.7 23.76 23.76 0 0 0-3.74 2.56 6 6 0 0 0 .66 8.56 6.38 6.38 0 0 0-4.08 6.38 18.18 18.18 0 0 0 1.29 4.28 6.35 6.35 0 0 1 .25 4.39c-.55 1.39-2.27 2.38-3.59 1.69a6.73 6.73 0 0 0 3.78 4.35 4 4 0 0 1-2.64 1.28c2.92 6.32 10.43 9.45 17.37 9.26s13.51-3.05 19.86-5.86l18.54-5.48c1.63-.43 2.24-2.46 2.17-4.14s-.57-3.43 0-5c.76-2.19 3.23-3.42 4-5.6.93-2.55-.65-5.22-2.44-7.15z"/><path fill="#263238" d="M189.89 146.15a77.42 77.42 0 0 1-3.72-12.8 27.05 27.05 0 0 1 .68-13.2c.21-.63 2.09-4.93 2.76-4.89.48 0-.64 4-.38 4.44a22.94 22.94 0 0 1 2.94 13.3 60.35 60.35 0 0 1-2.28 13.18"/><path fill="#ffbe9d" d="M206.34 108h-1c-11.13.38-17 10.06-16.34 21.2l.27 38.42a13.06 13.06 0 0 0 12.44 13 13 13 0 0 0 13.61-12.67c.06-2 .11-3.43.12-3.43s10.72-1.4 11.12-12.11c.19-5.17-.28-15.85-.82-25.5a19.92 19.92 0 0 0-19.4-18.91z"/><path fill="#eb996e" d="M215.41 164.47a25.83 25.83 0 0 1-13.8-4.47s3 7.91 13.7 7.21z"/><path fill="#263238" d="M223.06 135.61a1.53 1.53 0 0 1-1.51 1.51 1.47 1.47 0 0 1-1.55-1.42 1.54 1.54 0 0 1 1.51-1.51 1.47 1.47 0 0 1 1.55 1.42zm.26-4.37c-.19.2-1.33-.69-3-.73s-2.86.76-3 .55.11-.44.65-.81a4.13 4.13 0 0 1 2.43-.69 4 4 0 0 1 2.36.83c.5.4.66.76.56.85zm-16.04 4.37a1.53 1.53 0 0 1-1.51 1.51 1.47 1.47 0 0 1-1.54-1.42 1.54 1.54 0 0 1 1.51-1.51 1.47 1.47 0 0 1 1.54 1.42zm-.05-4.1c-.19.19-1.33-.69-3-.73s-2.86.75-3 .55.11-.45.65-.82a4.14 4.14 0 0 1 2.44-.68 4 4 0 0 1 2.35.82c.5.4.66.77.56.86zm5.58 12.79a10.13 10.13 0 0 1 2.67-.42c.42 0 .82-.11.9-.39a2.11 2.11 0 0 0-.25-1.25c-.37-1-.75-2.11-1.16-3.23-1.61-4.6-2.76-8.38-2.57-8.44s1.63 3.61 3.24 8.21c.39 1.13.76 2.21 1.11 3.25a2.46 2.46 0 0 1 .18 1.65 1.1 1.1 0 0 1-.71.6 3.27 3.27 0 0 1-.71.08 10.84 10.84 0 0 1-2.7-.06zm-4.81 1.01c.27 0 .23 1.78 1.72 3.09s3.39 1.15 3.4 1.4-.43.34-1.23.34a4.43 4.43 0 0 1-2.85-1.07 3.86 3.86 0 0 1-1.32-2.58c-.1-.75.11-1.19.28-1.18zm-.69-20.48c-.17.44-1.81.19-3.74.37s-3.5.67-3.74.27c-.11-.2.17-.61.81-1a6.15 6.15 0 0 1 2.79-.9 6.28 6.28 0 0 1 2.91.41c.66.28 1.04.64.97.85zm15.47.93c-.3.36-1.42-.05-2.78-.11s-2.51.19-2.77-.21c-.11-.19.08-.56.59-.9a4 4 0 0 1 4.47.25c.47.4.62.79.49.97z"/><path fill="#ffbe9d" d="M189.64 137.14c-.18-.08-7.28-2.36-7.23 5s7.38 5.76 7.39 5.55-.16-10.55-.16-10.55z"/><path fill="#eb996e" d="M187.55 144.9s-.13.09-.35.19a1.25 1.25 0 0 1-.95 0 3.17 3.17 0 0 1-1.47-2.83 4.18 4.18 0 0 1 .34-1.83 1.47 1.47 0 0 1 .95-1 .65.65 0 0 1 .75.34c.1.21.06.35.1.37s.15-.13.09-.43a.81.81 0 0 0-.29-.46 1 1 0 0 0-.7-.18 1.8 1.8 0 0 0-1.33 1.15 4.34 4.34 0 0 0-.42 2c0 1.48.82 2.85 1.88 3.15a1.38 1.38 0 0 0 1.16-.2c.22-.09.26-.26.24-.27z"/><path fill="#263238" d="M220.8 114.8c1.17-.68-2.44-4.46-5.37-5.74-4.42-1.92-11.14-3-15.17-1.83-4.85 1.46-8.87 4-11.24 8.45a28.74 28.74 0 0 0-3 14.76 8.66 8.66 0 0 0 1.1 4.46c1 1.6 3 2.59 3 4.82a3.12 3.12 0 0 0 .8 2.23c1.36 1.4 3 0 3.7-1.32 1.56-2.89 1.69-6.32 1.78-9.61a21.36 21.36 0 0 0-.58-7c-.37-1.21-1-2.36-1.27-3.59a4.4 4.4 0 0 1 .46-3.67 5 5 0 0 1 .58-.61 7.6 7.6 0 0 1 7.53-1.56c4.14 1.39 11.2 3.46 13 2a11.32 11.32 0 0 0 3.22-3.38z"/><path fill="#263238" d="M200.62 106.23a16 16 0 0 1 12.35.48 8.38 8.38 0 0 1 4.48 4.8c.65 2.15-.23 4.84-2.3 5.72l-.14.09c-3.1 1.11-5.13.72-8.26-.31-2.63-.87-5-2.45-7.61-3.3a14.79 14.79 0 0 0-8.69-.12 24.21 24.21 0 0 1 10.17-7.36z"/><path fill="#0047ff" d="M174.11 228.07c-.43 9-3 60.35-3 60.35a87.3 87.3 0 0 0 36.51 3.79c19.57-2.4 27.87 1.34 27.87 1.34L229.76 204l-14.66-34.22s-20.45-2.78-25.86-2.17a45.28 45.28 0 0 0-5.52 4.08c-5.49 6.26-9.23 19.59-9.43 30.71z"/><path d="M205.07 206.83c-5.41-4.64-12.75-2.61-16.45-8.7a178.66 178.66 0 0 0 15 29.62 3.49 3.49 0 0 0 1.46 1.51c1.43.58 2.81-.84 4.11-1.67 2.42-1.55 5.66-1.15 8.25.12s4.71 3.26 7 5 5 3.16 7.88 3.07a188.1 188.1 0 0 0-27.25-28.95z" opacity=".3"/><path fill="#ffbe9d" d="M227 201.41 240.74 214l14.87-33.83 12.57 4.21s-13.5 50-17 53.86c-4.79 5.23-12.68 4.52-16.81.85-4.74-4.21-22.46-21.7-22.46-21.7z"/><path fill="#eb996e" d="M240.74 222.31a12.94 12.94 0 0 1-.4-4.25 13.13 13.13 0 0 1 .5-4.25 26.25 26.25 0 0 1 0 4.25 28.56 28.56 0 0 1-.1 4.25z"/><path fill="#ffbe9d" d="m254.82 183.54 2.62-16.91a2.28 2.28 0 0 1 .84-1.43l1.12-.89s-.14-.23 1.86-2.84 4.85-2.58 5.56-1.09c0 0 3.73-1.93 4.55.75.48 1.57-1 3.74-1 3.74s3.46 1.1 2.1 5.37c0 0 1.86 0 .14 4.63-.74 2-5.91 12.38-5.91 12.38z"/><path fill="#263238" d="M245.24 170.55a1.3 1.3 0 0 0 1.76.81l17.37-7.44 2.29-3.44L246 169a1.3 1.3 0 0 0-.76 1.55z"/><path fill="#eb996e" d="M271.17 163.5a10 10 0 0 1-1.35 2.94c-.89 1.57-2.05 2.56-2.15 2.43s.83-1.17 1.7-2.7a10.73 10.73 0 0 1 1.8-2.67zm-9.09 3.98a17.83 17.83 0 0 1 2.2-3.73 18.4 18.4 0 0 1 2.62-3.43 18 18 0 0 1-2.19 3.73 18.11 18.11 0 0 1-2.63 3.43zm9.1 4.69c-.1-.11.25-.61.62-1.25s.66-1.18.8-1.14.07.71-.35 1.41-.97 1.08-1.07.98z"/><path fill="#0047ff" d="m228.7 199.74-22.35 23.53c-8.16-7.79-15.59-20.21-19.4-30.58a21.7 21.7 0 0 1-.74-11.73c.95-3.44 2-4.43 4.38-6.44 0 0 7.21-5.76 17.23 3.14 6.09 5.4 20.88 22.08 20.88 22.08z"/><path fill="#263238" d="M228.7 199.74a1.82 1.82 0 0 1-.26-.25l-.71-.76-2.73-3c-2.37-2.57-5.78-6.3-10.1-10.82-2.17-2.24-4.54-4.71-7.26-7.16a23.63 23.63 0 0 0-4.63-3.2 13.94 13.94 0 0 0-5.66-1.62 10.72 10.72 0 0 0-6 1.34 11.19 11.19 0 0 0-4.25 4.73 15.09 15.09 0 0 0-.93 3.2 18.17 18.17 0 0 0-.22 3.39 22.39 22.39 0 0 0 1.17 6.85 92.33 92.33 0 0 0 8.68 17.27 73.76 73.76 0 0 0 10.67 13.36h-.31l16.25-17 4.59-4.75 1.23-1.25.44-.43a4.82 4.82 0 0 1-.38.43l-1.15 1.26-4.48 4.79c-3.91 4.17-9.48 10.09-16.18 17.2l-.15.16-.16-.15A73.71 73.71 0 0 1 195.41 210a91.84 91.84 0 0 1-8.75-17.36 22.7 22.7 0 0 1-1.2-7 19.38 19.38 0 0 1 .23-3.49 16.16 16.16 0 0 1 1-3.31 8.51 8.51 0 0 1 1.91-2.84c.39-.4.81-.77 1.22-1.12l.63-.54a8.06 8.06 0 0 1 .72-.47 11.23 11.23 0 0 1 6.24-1.38 14.66 14.66 0 0 1 5.84 1.69 24.38 24.38 0 0 1 4.71 3.28c2.72 2.49 5.08 5 7.23 7.24 4.29 4.55 7.67 8.32 10 10.93 1.14 1.3 2 2.31 2.65 3 .29.33.51.6.68.8a1.86 1.86 0 0 1 .18.31z"/></svg>